<svg id="svg" version="1.1" width="512" height="288" xmlns="http://www.w3.org/2000/svg"><path d="M135.060 136.731 L 134.907 158.950 141.747 165.725 C 148.396 172.311,151.984 177.876,152.015 181.651 C 152.024 182.668,152.464 184.175,152.994 185.000 C 153.620 185.975,153.803 178.204,153.516 162.796 L 153.075 139.092 150.036 133.070 C 148.364 129.759,144.345 124.228,141.104 120.781 L 135.213 114.512 135.060 136.731 M168.359 121.425 C 165.469 124.408,161.795 129.471,160.194 132.675 C 157.298 138.471,157.280 138.619,156.618 162.324 C 156.166 178.485,156.282 185.944,156.976 185.515 C 157.539 185.167,158.000 183.766,158.000 182.401 C 158.000 178.152,161.980 171.751,168.620 165.321 L 175.000 159.142 175.000 137.571 C 175.000 125.707,174.688 116.000,174.307 116.000 C 173.925 116.000,171.249 118.441,168.359 121.425 M127.000 144.940 C 127.000 156.433,127.284 166.577,127.631 167.481 C 127.978 168.386,131.095 170.465,134.558 172.101 C 138.020 173.737,143.139 177.221,145.932 179.844 C 149.462 183.158,150.823 183.986,150.392 182.557 C 149.174 178.516,145.952 174.252,139.525 168.173 L 133.000 162.002 132.989 147.751 C 132.975 129.694,132.472 126.536,129.387 125.130 L 127.000 124.043 127.000 144.940 M179.191 126.270 C 178.572 127.015,178.006 134.659,177.819 144.785 L 177.500 162.030 171.163 167.672 C 165.218 172.966,160.000 179.659,160.000 181.992 C 160.000 182.559,162.363 181.102,165.250 178.755 C 168.137 176.407,173.256 173.252,176.624 171.744 L 182.748 169.001 183.214 148.250 C 183.470 136.838,183.478 126.938,183.233 126.250 C 182.656 124.636,180.538 124.646,179.191 126.270 M119.000 154.021 C 119.000 179.394,117.642 176.506,131.000 179.536 C 135.125 180.472,140.623 182.310,143.217 183.619 C 148.394 186.232,149.000 186.395,149.000 185.175 C 149.000 184.052,135.480 175.563,129.845 173.148 C 127.339 172.074,124.999 170.439,124.644 169.516 C 124.290 168.592,124.000 160.239,124.000 150.953 C 124.000 135.285,123.861 133.996,122.066 133.035 C 121.002 132.466,119.877 132.000,119.566 132.000 C 119.255 132.000,119.000 141.910,119.000 154.021 M186.552 134.647 C 186.187 136.103,186.148 140.715,186.465 144.897 C 186.782 149.079,186.695 156.534,186.271 161.465 L 185.500 170.430 178.415 174.053 C 174.518 176.046,169.153 179.174,166.493 181.005 C 163.832 182.836,161.078 184.333,160.372 184.333 C 159.666 184.333,159.321 184.710,159.605 185.170 C 160.307 186.306,164.543 185.192,170.121 182.406 C 172.662 181.136,177.837 179.551,181.621 178.883 C 192.410 176.979,192.000 177.925,192.000 154.927 C 192.000 144.057,191.727 134.452,191.393 133.582 C 190.406 131.009,187.294 131.694,186.552 134.647 M224.672 139.108 C 215.551 143.921,215.682 159.246,224.885 163.941 C 235.651 169.434,245.993 163.338,245.993 151.500 C 245.993 139.651,235.358 133.470,224.672 139.108 M321.315 138.007 C 318.605 139.099,317.000 141.978,317.000 145.747 C 317.000 148.710,319.800 151.960,325.282 155.362 C 329.156 157.766,327.721 159.181,321.785 158.812 C 317.888 158.570,316.515 158.887,315.649 160.231 C 313.807 163.090,317.024 165.302,323.720 165.782 C 331.418 166.333,335.000 163.824,335.000 157.882 C 335.000 153.548,332.918 150.860,327.187 147.797 C 322.724 145.411,323.214 144.160,328.750 143.805 C 332.802 143.545,333.547 143.170,333.819 141.252 C 334.055 139.590,333.451 138.742,331.504 138.002 C 328.347 136.801,324.302 136.803,321.315 138.007 M340.331 142.250 C 338.178 145.194,336.894 150.933,337.947 152.901 C 338.526 153.983,339.000 156.373,339.000 158.212 C 339.000 163.101,341.410 166.000,345.473 166.000 C 349.731 166.000,350.258 164.461,347.607 159.772 C 345.857 156.677,345.713 155.744,346.756 154.272 C 349.099 150.967,349.246 149.929,347.621 148.134 C 346.730 147.149,346.000 145.606,346.000 144.706 C 346.000 143.807,345.130 142.605,344.066 142.035 C 341.619 140.726,341.438 140.736,340.331 142.250 M237.128 145.654 C 237.882 146.563,238.500 149.194,238.500 151.500 C 238.500 153.806,237.882 156.437,237.128 157.346 C 235.361 159.475,230.182 159.474,227.829 157.345 C 225.474 155.214,225.371 148.353,227.655 145.829 C 229.731 143.534,235.284 143.432,237.128 145.654 M250.250 148.662 C 249.345 149.027,249.000 152.562,249.000 161.467 C 249.000 172.961,249.132 173.801,251.018 174.294 C 253.782 175.017,256.000 172.505,256.000 168.652 C 256.000 165.523,256.094 165.456,259.946 165.823 C 265.562 166.359,269.000 162.851,269.000 156.584 C 269.000 149.919,266.503 147.977,258.061 148.079 C 254.453 148.122,250.938 148.385,250.250 148.662 M275.500 149.195 C 272.534 150.877,272.032 152.026,272.015 157.177 C 272.003 161.049,272.454 162.212,274.635 163.927 C 278.055 166.618,283.989 166.662,287.139 164.020 C 290.180 161.470,288.495 160.158,282.300 160.252 C 279.890 160.288,277.396 159.796,276.759 159.159 C 275.880 158.280,277.341 158.000,282.800 158.000 L 290.000 158.000 290.000 155.073 C 290.000 149.463,281.269 145.924,275.500 149.195 M293.667 148.667 C 293.300 149.033,293.000 152.887,293.000 157.230 L 293.000 165.127 296.250 164.813 C 299.330 164.516,299.517 164.266,299.819 160.020 C 300.433 151.383,304.644 151.234,305.198 159.830 C 305.487 164.295,305.643 164.514,308.750 164.813 L 312.000 165.127 312.000 158.563 C 312.000 149.542,310.419 148.000,301.167 148.000 C 297.408 148.000,294.033 148.300,293.667 148.667 M354.048 149.760 C 352.700 150.852,351.660 153.112,351.312 155.712 C 350.814 159.425,351.097 160.251,353.798 162.952 C 359.025 168.179,368.647 166.690,371.085 160.276 C 372.644 156.176,371.176 151.142,367.932 149.465 C 363.996 147.430,356.735 147.584,354.048 149.760 M375.250 148.662 C 374.400 149.005,374.000 151.664,374.000 156.976 C 374.000 163.156,374.328 164.912,375.572 165.389 C 378.619 166.558,381.000 164.204,381.000 160.024 C 381.000 155.849,381.585 155.187,386.931 153.314 C 390.745 151.977,391.469 152.491,394.467 158.651 C 396.525 162.881,396.427 163.661,393.069 169.750 L 390.175 175.000 392.540 175.000 C 397.666 175.000,399.411 173.078,405.754 160.451 L 412.007 148.000 409.195 148.000 C 405.169 148.000,403.347 149.809,401.639 155.500 C 400.468 159.404,400.124 159.886,400.070 157.700 C 399.982 154.170,397.575 149.435,395.455 148.621 C 393.556 147.892,377.075 147.926,375.250 148.662 M284.896 152.914 C 285.827 153.504,284.439 153.915,280.728 154.149 C 276.362 154.424,275.388 154.231,276.205 153.250 C 277.399 151.815,282.828 151.605,284.896 152.914 M261.500 157.000 C 261.500 158.833,260.898 159.585,259.246 159.820 C 256.788 160.169,255.393 158.025,256.389 155.430 C 256.750 154.488,257.893 153.988,259.246 154.180 C 260.898 154.415,261.500 155.167,261.500 157.000 M363.820 156.754 C 364.227 159.621,361.410 160.838,359.286 158.714 C 357.162 156.590,358.379 153.773,361.246 154.180 C 362.697 154.386,363.614 155.303,363.820 156.754 " stroke="none" fill="undefined" fill-rule="evenodd"/></svg>